<mxfile host="app.diagrams.net" modified="2020-12-08T23:20:30.094Z" agent="5.0 (Windows NT 10.0; Win64; x64) AppleWebKit/537.36 (KHTML, like Gecko) Chrome/86.0.4240.198 Safari/537.36" etag="gAz1UfE9R21HOvwUf96Y" version="13.10.0" type="github">
  <diagram id="XLu6bGekAzowpy1T1GaF" name="Page-1">
    <mxGraphModel dx="969" dy="449" grid="1" gridSize="10" guides="1" tooltips="1" connect="1" arrows="1" fold="1" page="1" pageScale="1" pageWidth="850" pageHeight="1100" math="0" shadow="0">
      <root>
        <mxCell id="0" />
        <mxCell id="1" parent="0" />
        <mxCell id="osH6YHS5EC2Osw7mkJLz-1" value="Eater&#xa;&lt;interface&gt;" style="swimlane;fontStyle=1;align=center;verticalAlign=top;childLayout=stackLayout;horizontal=1;startSize=40;horizontalStack=0;resizeParent=1;resizeParentMax=0;resizeLast=0;collapsible=1;marginBottom=0;" parent="1" vertex="1">
          <mxGeometry x="360" y="170" width="170" height="74" as="geometry" />
        </mxCell>
        <mxCell id="osH6YHS5EC2Osw7mkJLz-2" value="+ eat(Edible): void" style="text;strokeColor=none;fillColor=none;align=left;verticalAlign=top;spacingLeft=4;spacingRight=4;overflow=hidden;rotatable=0;points=[[0,0.5],[1,0.5]];portConstraint=eastwest;" parent="osH6YHS5EC2Osw7mkJLz-1" vertex="1">
          <mxGeometry y="40" width="170" height="26" as="geometry" />
        </mxCell>
        <mxCell id="osH6YHS5EC2Osw7mkJLz-3" value="" style="line;strokeWidth=1;fillColor=none;align=left;verticalAlign=middle;spacingTop=-1;spacingLeft=3;spacingRight=3;rotatable=0;labelPosition=right;points=[];portConstraint=eastwest;" parent="osH6YHS5EC2Osw7mkJLz-1" vertex="1">
          <mxGeometry y="66" width="170" height="8" as="geometry" />
        </mxCell>
        <mxCell id="HdAO3HH_MAC8ZxExZL80-1" value="NoiseMaker&#xa;&lt;interface&gt;" style="swimlane;fontStyle=1;align=center;verticalAlign=top;childLayout=stackLayout;horizontal=1;startSize=40;horizontalStack=0;resizeParent=1;resizeParentMax=0;resizeLast=0;collapsible=1;marginBottom=0;" vertex="1" parent="1">
          <mxGeometry x="580" y="170" width="210" height="66" as="geometry" />
        </mxCell>
        <mxCell id="HdAO3HH_MAC8ZxExZL80-2" value="+ makeNoise(): void" style="text;strokeColor=none;fillColor=none;align=left;verticalAlign=top;spacingLeft=4;spacingRight=4;overflow=hidden;rotatable=0;points=[[0,0.5],[1,0.5]];portConstraint=eastwest;" vertex="1" parent="HdAO3HH_MAC8ZxExZL80-1">
          <mxGeometry y="40" width="210" height="22" as="geometry" />
        </mxCell>
        <mxCell id="HdAO3HH_MAC8ZxExZL80-3" value="" style="line;strokeWidth=1;fillColor=none;align=left;verticalAlign=middle;spacingTop=-1;spacingLeft=3;spacingRight=3;rotatable=0;labelPosition=right;points=[];portConstraint=eastwest;" vertex="1" parent="HdAO3HH_MAC8ZxExZL80-1">
          <mxGeometry y="62" width="210" height="4" as="geometry" />
        </mxCell>
        <mxCell id="HdAO3HH_MAC8ZxExZL80-5" value="Animal&#xa;" style="swimlane;fontStyle=3;align=center;verticalAlign=top;childLayout=stackLayout;horizontal=1;startSize=40;horizontalStack=0;resizeParent=1;resizeParentMax=0;resizeLast=0;collapsible=1;marginBottom=0;" vertex="1" parent="1">
          <mxGeometry x="460" y="320" width="190" height="74" as="geometry" />
        </mxCell>
        <mxCell id="HdAO3HH_MAC8ZxExZL80-6" value="+ eat(Edible): void" style="text;strokeColor=none;fillColor=none;align=left;verticalAlign=top;spacingLeft=4;spacingRight=4;overflow=hidden;rotatable=0;points=[[0,0.5],[1,0.5]];portConstraint=eastwest;" vertex="1" parent="HdAO3HH_MAC8ZxExZL80-5">
          <mxGeometry y="40" width="190" height="26" as="geometry" />
        </mxCell>
        <mxCell id="HdAO3HH_MAC8ZxExZL80-7" value="" style="line;strokeWidth=1;fillColor=none;align=left;verticalAlign=middle;spacingTop=-1;spacingLeft=3;spacingRight=3;rotatable=0;labelPosition=right;points=[];portConstraint=eastwest;" vertex="1" parent="HdAO3HH_MAC8ZxExZL80-5">
          <mxGeometry y="66" width="190" height="8" as="geometry" />
        </mxCell>
        <mxCell id="HdAO3HH_MAC8ZxExZL80-17" value="Horse" style="swimlane;fontStyle=1;align=center;verticalAlign=top;childLayout=stackLayout;horizontal=1;startSize=40;horizontalStack=0;resizeParent=1;resizeParentMax=0;resizeLast=0;collapsible=1;marginBottom=0;" vertex="1" parent="1">
          <mxGeometry x="300" y="430" width="170" height="100" as="geometry" />
        </mxCell>
        <mxCell id="HdAO3HH_MAC8ZxExZL80-18" value="+ eat(Edible): void" style="text;strokeColor=none;fillColor=none;align=left;verticalAlign=top;spacingLeft=4;spacingRight=4;overflow=hidden;rotatable=0;points=[[0,0.5],[1,0.5]];portConstraint=eastwest;" vertex="1" parent="HdAO3HH_MAC8ZxExZL80-17">
          <mxGeometry y="40" width="170" height="26" as="geometry" />
        </mxCell>
        <mxCell id="HdAO3HH_MAC8ZxExZL80-19" value="" style="line;strokeWidth=1;fillColor=none;align=left;verticalAlign=middle;spacingTop=-1;spacingLeft=3;spacingRight=3;rotatable=0;labelPosition=right;points=[];portConstraint=eastwest;" vertex="1" parent="HdAO3HH_MAC8ZxExZL80-17">
          <mxGeometry y="66" width="170" height="8" as="geometry" />
        </mxCell>
        <mxCell id="HdAO3HH_MAC8ZxExZL80-20" value="+ method(type): type" style="text;strokeColor=none;fillColor=none;align=left;verticalAlign=top;spacingLeft=4;spacingRight=4;overflow=hidden;rotatable=0;points=[[0,0.5],[1,0.5]];portConstraint=eastwest;" vertex="1" parent="HdAO3HH_MAC8ZxExZL80-17">
          <mxGeometry y="74" width="170" height="26" as="geometry" />
        </mxCell>
        <mxCell id="HdAO3HH_MAC8ZxExZL80-21" value="Chicken" style="swimlane;fontStyle=1;align=center;verticalAlign=top;childLayout=stackLayout;horizontal=1;startSize=40;horizontalStack=0;resizeParent=1;resizeParentMax=0;resizeLast=0;collapsible=1;marginBottom=0;" vertex="1" parent="1">
          <mxGeometry x="620" y="430" width="180" height="100" as="geometry" />
        </mxCell>
        <mxCell id="HdAO3HH_MAC8ZxExZL80-22" value="+ hasBeenFertilized(): boolean" style="text;strokeColor=none;fillColor=none;align=left;verticalAlign=top;spacingLeft=4;spacingRight=4;overflow=hidden;rotatable=0;points=[[0,0.5],[1,0.5]];portConstraint=eastwest;" vertex="1" parent="HdAO3HH_MAC8ZxExZL80-21">
          <mxGeometry y="40" width="180" height="26" as="geometry" />
        </mxCell>
        <mxCell id="HdAO3HH_MAC8ZxExZL80-23" value="" style="line;strokeWidth=1;fillColor=none;align=left;verticalAlign=middle;spacingTop=-1;spacingLeft=3;spacingRight=3;rotatable=0;labelPosition=right;points=[];portConstraint=eastwest;" vertex="1" parent="HdAO3HH_MAC8ZxExZL80-21">
          <mxGeometry y="66" width="180" height="8" as="geometry" />
        </mxCell>
        <mxCell id="HdAO3HH_MAC8ZxExZL80-24" value="+ method(type): type" style="text;strokeColor=none;fillColor=none;align=left;verticalAlign=top;spacingLeft=4;spacingRight=4;overflow=hidden;rotatable=0;points=[[0,0.5],[1,0.5]];portConstraint=eastwest;" vertex="1" parent="HdAO3HH_MAC8ZxExZL80-21">
          <mxGeometry y="74" width="180" height="26" as="geometry" />
        </mxCell>
        <mxCell id="HdAO3HH_MAC8ZxExZL80-30" value="" style="endArrow=block;dashed=1;endFill=0;endSize=12;html=1;exitX=0.326;exitY=-0.034;exitDx=0;exitDy=0;exitPerimeter=0;" edge="1" parent="1" source="HdAO3HH_MAC8ZxExZL80-5">
          <mxGeometry width="160" relative="1" as="geometry">
            <mxPoint x="490" y="290" as="sourcePoint" />
            <mxPoint x="440" y="250" as="targetPoint" />
          </mxGeometry>
        </mxCell>
        <mxCell id="HdAO3HH_MAC8ZxExZL80-31" value="" style="endArrow=block;dashed=1;endFill=0;endSize=12;html=1;exitX=0.673;exitY=-0.09;exitDx=0;exitDy=0;exitPerimeter=0;" edge="1" parent="1" source="HdAO3HH_MAC8ZxExZL80-5">
          <mxGeometry width="160" relative="1" as="geometry">
            <mxPoint x="570" y="290" as="sourcePoint" />
            <mxPoint x="663.02" y="242.5" as="targetPoint" />
            <Array as="points" />
          </mxGeometry>
        </mxCell>
        <mxCell id="HdAO3HH_MAC8ZxExZL80-33" value="Extends" style="endArrow=block;endSize=16;endFill=0;html=1;exitX=0.061;exitY=-0.033;exitDx=0;exitDy=0;exitPerimeter=0;entryX=0;entryY=1;entryDx=0;entryDy=0;" edge="1" parent="1" source="HdAO3HH_MAC8ZxExZL80-17" target="HdAO3HH_MAC8ZxExZL80-5">
          <mxGeometry width="160" relative="1" as="geometry">
            <mxPoint x="310" y="490" as="sourcePoint" />
            <mxPoint x="470" y="490" as="targetPoint" />
          </mxGeometry>
        </mxCell>
        <mxCell id="HdAO3HH_MAC8ZxExZL80-36" value="Extends" style="endArrow=block;endSize=16;endFill=0;html=1;exitX=0.35;exitY=-0.025;exitDx=0;exitDy=0;exitPerimeter=0;" edge="1" parent="1" source="HdAO3HH_MAC8ZxExZL80-21">
          <mxGeometry width="160" relative="1" as="geometry">
            <mxPoint x="680" y="410" as="sourcePoint" />
            <mxPoint x="610" y="390" as="targetPoint" />
          </mxGeometry>
        </mxCell>
        <mxCell id="HdAO3HH_MAC8ZxExZL80-37" value="Produce&#xa;&lt;interface&gt;" style="swimlane;fontStyle=1;align=center;verticalAlign=top;childLayout=stackLayout;horizontal=1;startSize=40;horizontalStack=0;resizeParent=1;resizeParentMax=0;resizeLast=0;collapsible=1;marginBottom=0;" vertex="1" parent="1">
          <mxGeometry x="170" y="183" width="190" height="74" as="geometry" />
        </mxCell>
        <mxCell id="HdAO3HH_MAC8ZxExZL80-38" value="+ yields(EdibleEgg): void" style="text;strokeColor=none;fillColor=none;align=left;verticalAlign=top;spacingLeft=4;spacingRight=4;overflow=hidden;rotatable=0;points=[[0,0.5],[1,0.5]];portConstraint=eastwest;" vertex="1" parent="HdAO3HH_MAC8ZxExZL80-37">
          <mxGeometry y="40" width="190" height="26" as="geometry" />
        </mxCell>
        <mxCell id="HdAO3HH_MAC8ZxExZL80-39" value="" style="line;strokeWidth=1;fillColor=none;align=left;verticalAlign=middle;spacingTop=-1;spacingLeft=3;spacingRight=3;rotatable=0;labelPosition=right;points=[];portConstraint=eastwest;" vertex="1" parent="HdAO3HH_MAC8ZxExZL80-37">
          <mxGeometry y="66" width="190" height="8" as="geometry" />
        </mxCell>
        <mxCell id="HdAO3HH_MAC8ZxExZL80-49" value="Botanist" style="swimlane;fontStyle=1;align=center;verticalAlign=top;childLayout=stackLayout;horizontal=1;startSize=40;horizontalStack=0;resizeParent=1;resizeParentMax=0;resizeLast=0;collapsible=1;marginBottom=0;" vertex="1" parent="1">
          <mxGeometry x="110" y="360" width="170" height="74" as="geometry" />
        </mxCell>
        <mxCell id="HdAO3HH_MAC8ZxExZL80-50" value="+ plant(): void" style="text;strokeColor=none;fillColor=none;align=left;verticalAlign=top;spacingLeft=4;spacingRight=4;overflow=hidden;rotatable=0;points=[[0,0.5],[1,0.5]];portConstraint=eastwest;" vertex="1" parent="HdAO3HH_MAC8ZxExZL80-49">
          <mxGeometry y="40" width="170" height="26" as="geometry" />
        </mxCell>
        <mxCell id="HdAO3HH_MAC8ZxExZL80-51" value="" style="line;strokeWidth=1;fillColor=none;align=left;verticalAlign=middle;spacingTop=-1;spacingLeft=3;spacingRight=3;rotatable=0;labelPosition=right;points=[];portConstraint=eastwest;" vertex="1" parent="HdAO3HH_MAC8ZxExZL80-49">
          <mxGeometry y="66" width="170" height="8" as="geometry" />
        </mxCell>
        <mxCell id="HdAO3HH_MAC8ZxExZL80-53" value="Rideable&#xa;&lt;interface&gt;" style="swimlane;fontStyle=1;align=center;verticalAlign=top;childLayout=stackLayout;horizontal=1;startSize=40;horizontalStack=0;resizeParent=1;resizeParentMax=0;resizeLast=0;collapsible=1;marginBottom=0;" vertex="1" parent="1">
          <mxGeometry x="460" y="580" width="170" height="100" as="geometry" />
        </mxCell>
        <mxCell id="HdAO3HH_MAC8ZxExZL80-54" value="+ mount(Rider): " style="text;strokeColor=none;fillColor=none;align=left;verticalAlign=top;spacingLeft=4;spacingRight=4;overflow=hidden;rotatable=0;points=[[0,0.5],[1,0.5]];portConstraint=eastwest;" vertex="1" parent="HdAO3HH_MAC8ZxExZL80-53">
          <mxGeometry y="40" width="170" height="26" as="geometry" />
        </mxCell>
        <mxCell id="HdAO3HH_MAC8ZxExZL80-55" value="+ dismount(): void" style="text;strokeColor=none;fillColor=none;align=left;verticalAlign=top;spacingLeft=4;spacingRight=4;overflow=hidden;rotatable=0;points=[[0,0.5],[1,0.5]];portConstraint=eastwest;" vertex="1" parent="HdAO3HH_MAC8ZxExZL80-53">
          <mxGeometry y="66" width="170" height="26" as="geometry" />
        </mxCell>
        <mxCell id="HdAO3HH_MAC8ZxExZL80-56" value="" style="line;strokeWidth=1;fillColor=none;align=left;verticalAlign=middle;spacingTop=-1;spacingLeft=3;spacingRight=3;rotatable=0;labelPosition=right;points=[];portConstraint=eastwest;" vertex="1" parent="HdAO3HH_MAC8ZxExZL80-53">
          <mxGeometry y="92" width="170" height="8" as="geometry" />
        </mxCell>
        <mxCell id="HdAO3HH_MAC8ZxExZL80-58" value="Vehicle&#xa;&lt;interface&gt;" style="swimlane;fontStyle=1;align=center;verticalAlign=top;childLayout=stackLayout;horizontal=1;startSize=40;horizontalStack=0;resizeParent=1;resizeParentMax=0;resizeLast=0;collapsible=1;marginBottom=0;" vertex="1" parent="1">
          <mxGeometry x="10" y="96" width="190" height="74" as="geometry" />
        </mxCell>
        <mxCell id="HdAO3HH_MAC8ZxExZL80-59" value="+ Ride(Drive): void" style="text;strokeColor=none;fillColor=none;align=left;verticalAlign=top;spacingLeft=4;spacingRight=4;overflow=hidden;rotatable=0;points=[[0,0.5],[1,0.5]];portConstraint=eastwest;" vertex="1" parent="HdAO3HH_MAC8ZxExZL80-58">
          <mxGeometry y="40" width="190" height="26" as="geometry" />
        </mxCell>
        <mxCell id="HdAO3HH_MAC8ZxExZL80-60" value="" style="line;strokeWidth=1;fillColor=none;align=left;verticalAlign=middle;spacingTop=-1;spacingLeft=3;spacingRight=3;rotatable=0;labelPosition=right;points=[];portConstraint=eastwest;" vertex="1" parent="HdAO3HH_MAC8ZxExZL80-58">
          <mxGeometry y="66" width="190" height="8" as="geometry" />
        </mxCell>
        <mxCell id="HdAO3HH_MAC8ZxExZL80-61" value="Crop" style="swimlane;fontStyle=1;align=center;verticalAlign=top;childLayout=stackLayout;horizontal=1;startSize=40;horizontalStack=0;resizeParent=1;resizeParentMax=0;resizeLast=0;collapsible=1;marginBottom=0;" vertex="1" parent="1">
          <mxGeometry x="20" y="270" width="170" height="74" as="geometry" />
        </mxCell>
        <mxCell id="HdAO3HH_MAC8ZxExZL80-62" value="+ plant(): void" style="text;strokeColor=none;fillColor=none;align=left;verticalAlign=top;spacingLeft=4;spacingRight=4;overflow=hidden;rotatable=0;points=[[0,0.5],[1,0.5]];portConstraint=eastwest;" vertex="1" parent="HdAO3HH_MAC8ZxExZL80-61">
          <mxGeometry y="40" width="170" height="26" as="geometry" />
        </mxCell>
        <mxCell id="HdAO3HH_MAC8ZxExZL80-63" value="" style="line;strokeWidth=1;fillColor=none;align=left;verticalAlign=middle;spacingTop=-1;spacingLeft=3;spacingRight=3;rotatable=0;labelPosition=right;points=[];portConstraint=eastwest;" vertex="1" parent="HdAO3HH_MAC8ZxExZL80-61">
          <mxGeometry y="66" width="170" height="8" as="geometry" />
        </mxCell>
      </root>
    </mxGraphModel>
  </diagram>
</mxfile>
